# xmcd
#
# Track frame offsets:
#	150
#	22547
#	40582
#	62032
#	84357
#	106680
#	129080
#	147112
#	165147
#	183257
#
# Disc length: 2728 seconds
#
# Revision: 1
# Processed by: cddbd v1.5.1PL0 Copyright (c) Steve Scherf et al.
# Submitted via: CDex 1.50Beta5
#
DISCID=5f0aa60a
DTITLE=K&T T.N.T - 君の好きなヒト
DYEAR=2003
DGENRE=Pop
TTITLE0=K&T/君の好きなヒト
TTITLE1=K&T/ワルだった男
TTITLE2=T.N.T/約束の空
TTITLE3=K&T/君の好きなヒト〜軽部真一と歌うカラオケバージョン〜
TTITLE4=K&T/君の好きなヒト〜高島　彩と歌うカラオケバージョン〜
TTITLE5=K&T/君の好きなヒト　カラオケ
TTITLE6=K&T/ワルだった男〜軽部真一と歌うカラオケバージョン〜
TTITLE7=K&T/ワルだった男〜高島　彩と歌うカラオケバージョン〜
TTITLE8=K&T/ワルだった男　カラオケ
TTITLE9=T.N.T/約束の空　カラオケ
EXTD=
EXTT0=
EXTT1=
EXTT2=
EXTT3=
EXTT4=
EXTT5=
EXTT6=
EXTT7=
EXTT8=
EXTT9=
PLAYORDER=
